# xmcd
#
# Track frame offsets: 
#        150
#        15815
#        32547
#        43611
#        61009
#        77095
#        91545
#        110488
#        125895
#        141766
#
# Disc length: 2072 seconds
#
# Revision: 0
# Processed by: cddbd v1.5.2PL0 Copyright (c) Steve Scherf et al.
# Submitted via: ExactAudioCopy v1.2
#
DISCID=6f08160a
DTITLE=Steve Odum - Steve Odum Plays His Blues
DYEAR=2018
DGENRE=Blues
TTITLE0=Built For Comfort
TTITLE1=Bring Her Back
TTITLE2=Factory Blues
TTITLE3=Man With A Plan
TTITLE4=Close Your Door
TTITLE5=Chicago Chicago Chicago
TTITLE6=Only He Can Fix It
TTITLE7=On The Outskirts Of Town
TTITLE8=Come To Me
TTITLE9=Edna May
EXTD=
EXTT0=
EXTT1=
EXTT2=
EXTT3=
EXTT4=
EXTT5=
EXTT6=
EXTT7=
EXTT8=
EXTT9=
PLAYORDER=
